Sen-Regular.ufo
<glyph name="quotesingle" format="1">
  <advance width="242"/>
  <unicode hex="0027"/>
  <outline>
    <contour>
      <point x="162" y="670" type="line"/>
      <point x="80" y="670" type="line"/>
      <point x="80" y="416" type="line"/>
      <point x="162" y="416" type="line"/>
    </contour>
  </outline>
</glyph>
<glyph name="plus" format="1">
  <advance width="550"/>
  <unicode hex="002B"/>
  <outline>
    <contour>
      <point x="320" y="508" type="line"/>
      <point x="230" y="508" type="line"/>
      <point x="230" y="117" type="line"/>
      <point x="320" y="117" type="line"/>
    </contour>
    <contour>
      <point x="470" y="358" type="line"/>
      <point x="80" y="358" type="line"/>
      <point x="80" y="268" type="line"/>
      <point x="470" y="268" type="line"/>
    </contour>
  </outline>
</glyph>
<glyph name="hyphen" format="1">
  <advance width="421"/>
  <unicode hex="002D"/>
  <outline>
    <contour>
      <point x="361" y="298" type="line"/>
      <point x="60" y="298" type="line"/>
      <point x="60" y="208" type="line"/>
      <point x="361" y="208" type="line"/>
    </contour>
  </outline>
</glyph>
<glyph name="three" format="1">
  <advance width="550"/>
  <unicode hex="0033"/>
  <outline>
    <contour>
      <point x="246" y="685" type="curve" smooth="yes"/>
      <point x="185" y="685"/>
      <point x="126" y="661"/>
      <point x="91" y="629" type="curve"/>
      <point x="91" y="530" type="line"/>
      <point x="129" y="569"/>
      <point x="174" y="604"/>
      <point x="243" y="604" type="curve" smooth="yes"/>
      <point x="323" y="604"/>
      <point x="389" y="556"/>
      <point x="389" y="487" type="curve" smooth="yes"/>
      <point x="389" y="422"/>
      <point x="330" y="383"/>
      <point x="246" y="383" type="curve" smooth="yes"/>
      <point x="186" y="383" type="line"/>
      <point x="186" y="303" type="line"/>
      <point x="246" y="303" type="line" smooth="yes"/>
      <point x="320" y="303"/>
      <point x="389" y="254"/>
      <point x="389" y="188" type="curve" smooth="yes"/>
      <point x="389" y="111"/>
      <point x="331" y="66"/>
      <point x="251" y="66" type="curve" smooth="yes"/>
      <point x="164" y="66"/>
      <point x="116" y="116"/>
      <point x="71" y="148" type="curve"/>
      <point x="71" y="49" type="line"/>
      <point x="106" y="17"/>
      <point x="170" y="-15"/>
      <point x="249" y="-15" type="curve" smooth="yes"/>
      <point x="381" y="-15"/>
      <point x="474" y="71"/>
      <point x="474" y="183" type="curve" smooth="yes"/>
      <point x="474" y="273"/>
      <point x="393" y="328"/>
      <point x="341" y="342" type="curve"/>
      <point x="393" y="356"/>
      <point x="474" y="402"/>
      <point x="474" y="492" type="curve" smooth="yes"/>
      <point x="474" y="603"/>
      <point x="378" y="685"/>
    </contour>
  </outline>
</glyph>
<glyph name="seven" format="1">
  <advance width="550"/>
  <unicode hex="0037"/>
  <outline>
    <contour>
      <point x="514" y="670" type="line"/>
      <point x="51" y="670" type="line"/>
      <point x="51" y="587" type="line"/>
      <point x="407" y="587" type="line"/>
      <point x="281" y="401"/>
      <point x="149" y="232"/>
      <point x="149" y="0" type="curve"/>
      <point x="252" y="0" type="line"/>
      <point x="252" y="223"/>
      <point x="347" y="389"/>
      <point x="514" y="628" type="curve"/>
    </contour>
  </outline>
</glyph>
<glyph name="B" format="1">
  <advance width="663"/>
  <unicode hex="0042"/>
  <outline>
    <contour>
      <point x="346" y="686" type="curve" smooth="yes"/>
      <point x="264" y="686"/>
      <point x="179" y="677"/>
      <point x="110" y="661" type="curve"/>
      <point x="110" y="15" type="line"/>
      <point x="173" y="1"/>
      <point x="271" y="-10"/>
      <point x="354" y="-10" type="curve" smooth="yes"/>
      <point x="516" y="-10"/>
      <point x="618" y="77"/>
      <point x="618" y="189" type="curve" smooth="yes"/>
      <point x="618" y="286"/>
      <point x="550" y="336"/>
      <point x="491" y="348" type="curve"/>
      <point x="547" y="374"/>
      <point x="589" y="433"/>
      <point x="589" y="498" type="curve" smooth="yes"/>
      <point x="589" y="607"/>
      <point x="493" y="686"/>
    </contour>
    <contour>
      <point x="340" y="601" type="curve" smooth="yes"/>
      <point x="424" y="601"/>
      <point x="497" y="565"/>
      <point x="497" y="494" type="curve" smooth="yes"/>
      <point x="497" y="433"/>
      <point x="448" y="379"/>
      <point x="357" y="379" type="curve" smooth="yes"/>
      <point x="184" y="379" type="line"/>
      <point x="184" y="299" type="line"/>
      <point x="359" y="299" type="line" smooth="yes"/>
      <point x="452" y="299"/>
      <point x="526" y="262"/>
      <point x="526" y="189" type="curve" smooth="yes"/>
      <point x="526" y="119"/>
      <point x="452" y="75"/>
      <point x="352" y="75" type="curve" smooth="yes"/>
      <point x="315" y="75"/>
      <point x="248" y="78"/>
      <point x="200" y="87" type="curve"/>
      <point x="200" y="589" type="line"/>
      <point x="241" y="597"/>
      <point x="284" y="601"/>
    </contour>
  </outline>
</glyph>
<glyph name="H" format="1">
  <advance width="782"/>
  <unicode hex="0048"/>
  <outline>
    <contour>
      <point x="672" y="670" type="line"/>
      <point x="582" y="670" type="line"/>
      <point x="582" y="0" type="line"/>
      <point x="672" y="0" type="line"/>
    </contour>
    <contour>
      <point x="200" y="670" type="line"/>
      <point x="110" y="670" type="line"/>
      <point x="110" y="0" type="line"/>
      <point x="200" y="0" type="line"/>
    </contour>
    <contour>
      <point x="610" y="388" type="line"/>
      <point x="187" y="388" type="line"/>
      <point x="187" y="303" type="line"/>
      <point x="610" y="303" type="line"/>
    </contour>
  </outline>
</glyph>
<glyph name="L" format="1">
  <advance width="614"/>
  <unicode hex="004C"/>
  <outline>
    <contour>
      <point x="200" y="670" type="line"/>
      <point x="110" y="670" type="line"/>
      <point x="110" y="0" type="line"/>
      <point x="569" y="0" type="line"/>
      <point x="569" y="85" type="line"/>
      <point x="200" y="85" type="line"/>
    </contour>
    <contour>
      <point x="326" y="0" type="move" name="bottom"/>
    </contour>
    <contour>
      <point x="171" y="670" type="move" name="top"/>
    </contour>
    <contour>
      <point x="596" y="670" type="move" name="topright"/>
    </contour>
  </outline>
</glyph>
<glyph name="P" format="1">
  <advance width="660"/>
  <unicode hex="0050"/>
  <outline>
    <contour>
      <point x="377" y="670" type="curve" smooth="yes"/>
      <point x="110" y="670" type="line"/>
      <point x="110" y="0" type="line"/>
      <point x="200" y="0" type="line"/>
      <point x="200" y="585" type="line"/>
      <point x="352" y="585" type="line" smooth="yes"/>
      <point x="438" y="585"/>
      <point x="518" y="524"/>
      <point x="518" y="439" type="curve" smooth="yes"/>
      <point x="518" y="344"/>
      <point x="460" y="292"/>
      <point x="359" y="292" type="curve" smooth="yes"/>
      <point x="291" y="292"/>
      <point x="220" y="313"/>
      <point x="188" y="330" type="curve"/>
      <point x="188" y="248" type="line"/>
      <point x="221" y="230"/>
      <point x="285" y="209"/>
      <point x="362" y="209" type="curve" smooth="yes"/>
      <point x="500" y="209"/>
      <point x="610" y="301"/>
      <point x="610" y="439" type="curve" smooth="yes"/>
      <point x="610" y="577"/>
      <point x="492" y="670"/>
    </contour>
  </outline>
</glyph>
<glyph name="X" format="1">
  <advance width="644"/>
  <unicode hex="0058"/>
  <outline>
    <contour>
      <point x="634" y="670" type="line"/>
      <point x="514" y="670" type="line"/>
      <point x="320" y="397" type="line"/>
      <point x="130" y="670" type="line"/>
      <point x="10" y="670" type="line"/>
      <point x="261" y="335" type="line"/>
      <point x="10" y="0" type="line"/>
      <point x="120" y="0" type="line"/>
      <point x="312" y="262" type="line"/>
      <point x="514" y="0" type="line"/>
      <point x="634" y="0" type="line"/>
      <point x="371" y="325" type="line"/>
    </contour>
  </outline>
</glyph>
<glyph name="Y" format="1">
  <advance width="631"/>
  <unicode hex="0059"/>
  <outline>
    <contour>
      <point x="621" y="670" type="line"/>
      <point x="513" y="670" type="line"/>
      <point x="314" y="354" type="line"/>
      <point x="118" y="670" type="line"/>
      <point x="10" y="670" type="line"/>
      <point x="295" y="217" type="line"/>
      <point x="326" y="217" type="line"/>
    </contour>
    <contour>
      <point x="364" y="304" type="line"/>
      <point x="267" y="304" type="line"/>
      <point x="267" y="0" type="line"/>
      <point x="364" y="0" type="line"/>
    </contour>
    <contour>
      <point x="316" y="670" type="move" name="top"/>
    </contour>
  </outline>
</glyph>
<glyph name="bracketleft" format="1">
  <advance width="379"/>
  <unicode hex="005B"/>
  <outline>
    <contour>
      <point x="339" y="690" type="line"/>
      <point x="80" y="690" type="line"/>
      <point x="80" y="-200" type="line"/>
      <point x="339" y="-200" type="line"/>
      <point x="339" y="-110" type="line"/>
      <point x="177" y="-110" type="line"/>
      <point x="177" y="600" type="line"/>
      <point x="339" y="600" type="line"/>
    </contour>
  </outline>
</glyph>
<glyph name="backslash" format="1">
  <advance width="364"/>
  <unicode hex="005C"/>
  <outline>
    <contour>
      <point x="61" y="670" type="line"/>
      <point x="-10" y="670" type="line"/>
      <point x="306" y="-200" type="line"/>
      <point x="374" y="-200" type="line"/>
    </contour>
  </outline>
</glyph>
<glyph name="c" format="1">
  <advance width="511"/>
  <unicode hex="0063"/>
  <outline>
    <contour>
      <point x="311" y="510" type="curve" smooth="yes"/>
      <point x="159" y="510"/>
      <point x="50" y="389"/>
      <point x="50" y="247" type="curve" smooth="yes"/>
      <point x="50" y="105"/>
      <point x="159" y="-15"/>
      <point x="311" y="-15" type="curve" smooth="yes"/>
      <point x="384" y="-15"/>
      <point x="441" y="14"/>
      <point x="461" y="34" type="curve"/>
      <point x="461" y="117" type="line"/>
      <point x="423" y="89"/>
      <point x="378" y="65"/>
      <point x="311" y="65" type="curve" smooth="yes"/>
      <point x="204" y="65"/>
      <point x="135" y="150"/>
      <point x="135" y="247" type="curve" smooth="yes"/>
      <point x="135" y="344"/>
      <point x="204" y="430"/>
      <point x="311" y="430" type="curve" smooth="yes"/>
      <point x="378" y="430"/>
      <point x="423" y="406"/>
      <point x="461" y="378" type="curve"/>
      <point x="461" y="461" type="line"/>
      <point x="441" y="480"/>
      <point x="384" y="510"/>
    </contour>
    <contour>
      <point x="293" y="0" type="move" name="bottom"/>
    </contour>
    <contour>
      <point x="300" y="500" type="move" name="top"/>
    </contour>
  </outline>
</glyph>
<glyph name="h" format="1">
  <advance width="585"/>
  <unicode hex="0068"/>
  <outline>
    <contour>
      <point x="167" y="720" type="line"/>
      <point x="85" y="720" type="line"/>
      <point x="85" y="0" type="line"/>
      <point x="167" y="0" type="line"/>
    </contour>
    <contour>
      <point x="330" y="510" type="curve" smooth="yes"/>
      <point x="262" y="510"/>
      <point x="198" y="460"/>
      <point x="167" y="421" type="curve"/>
      <point x="167" y="332" type="line"/>
      <point x="207" y="384"/>
      <point x="263" y="430"/>
      <point x="316" y="430" type="curve" smooth="yes"/>
      <point x="395" y="430"/>
      <point x="432" y="383"/>
      <point x="432" y="297" type="curve" smooth="yes"/>
      <point x="433" y="0" type="line"/>
      <point x="515" y="0" type="line"/>
      <point x="515" y="305" type="line" smooth="yes"/>
      <point x="515" y="443"/>
      <point x="432" y="510"/>
    </contour>
  </outline>
</glyph>
<glyph name="k" format="1">
  <advance width="545"/>
  <unicode hex="006B"/>
  <outline>
    <contour>
      <point x="527" y="500" type="line"/>
      <point x="416" y="500" type="line"/>
      <point x="143" y="233" type="line"/>
      <point x="143" y="139" type="line"/>
    </contour>
    <contour>
      <point x="167" y="720" type="line"/>
      <point x="85" y="720" type="line"/>
      <point x="85" y="0" type="line"/>
      <point x="167" y="0" type="line"/>
    </contour>
    <contour>
      <point x="262" y="321" type="line"/>
      <point x="208" y="263" type="line"/>
      <point x="436" y="0" type="line"/>
      <point x="540" y="0" type="line"/>
    </contour>
    <contour>
      <point x="278" y="0" type="move" name="bottom"/>
    </contour>
  </outline>
</glyph>
<glyph name="l" format="1">
  <advance width="252"/>
  <unicode hex="006C"/>
  <outline>
    <contour>
      <point x="167" y="720" type="line"/>
      <point x="85" y="720" type="line"/>
      <point x="85" y="0" type="line"/>
      <point x="167" y="0" type="line"/>
    </contour>
    <contour>
      <point x="126" y="0" type="move" name="bottom"/>
    </contour>
    <contour>
      <point x="126" y="720" type="move" name="top"/>
    </contour>
    <contour>
      <point x="237" y="500" type="move" name="topright"/>
    </contour>
  </outline>
</glyph>
<glyph name="t" format="1">
  <advance width="451"/>
  <unicode hex="0074"/>
  <outline>
    <contour>
      <point x="223" y="644" type="line"/>
      <point x="185" y="644" type="line"/>
      <point x="152" y="545"/>
      <point x="110" y="476"/>
      <point x="45" y="447" type="curve"/>
      <point x="45" y="423" type="line"/>
      <point x="141" y="423" type="line"/>
      <point x="141" y="126" type="line" smooth="yes"/>
      <point x="141" y="41"/>
      <point x="194" y="-15"/>
      <point x="279" y="-15" type="curve" smooth="yes"/>
      <point x="329" y="-15"/>
      <point x="364" y="-6"/>
      <point x="391" y="15" type="curve"/>
      <point x="391" y="87" type="line"/>
      <point x="371" y="75"/>
      <point x="337" y="63"/>
      <point x="297" y="63" type="curve" smooth="yes"/>
      <point x="253" y="63"/>
      <point x="223" y="88"/>
      <point x="223" y="130" type="curve" smooth="yes"/>
      <point x="223" y="423" type="line"/>
      <point x="384" y="423" type="line"/>
      <point x="384" y="500" type="line"/>
      <point x="223" y="500" type="line"/>
    </contour>
    <contour>
      <point x="254" y="0" type="move" name="bottom"/>
    </contour>
    <contour>
      <point x="214" y="250" type="move" name="center"/>
    </contour>
    <contour>
      <point x="408" y="500" type="move" name="topright"/>
    </contour>
  </outline>
</glyph>
<glyph name="dieresis" format="1">
  <advance width="496"/>
  <unicode hex="00A8"/>
  <outline>
    <component base="dotaccent" xOffset="203" yOffset="-1"/>
    <component base="dotaccent" xOffset="-7" yOffset="-1"/>
    <contour>
      <point x="248" y="500" type="move" name="_top"/>
    </contour>
  </outline>
</glyph>
<glyph name="copyright" format="1">
  <advance width="884"/>
  <unicode hex="00A9"/>
  <outline>
    <contour>
      <point x="442" y="723" type="curve" smooth="yes"/>
      <point x="218" y="723"/>
      <point x="50" y="548"/>
      <point x="50" y="335" type="curve" smooth="yes"/>
      <point x="50" y="122"/>
      <point x="218" y="-53"/>
      <point x="442" y="-53" type="curve" smooth="yes"/>
      <point x="666" y="-53"/>
      <point x="834" y="122"/>
      <point x="834" y="335" type="curve" smooth="yes"/>
      <point x="834" y="548"/>
      <point x="666" y="723"/>
    </contour>
    <contour>
      <point x="442" y="649" type="curve" smooth="yes"/>
      <point x="627" y="649"/>
      <point x="751" y="520"/>
      <point x="751" y="335" type="curve" smooth="yes"/>
      <point x="751" y="150"/>
      <point x="627" y="21"/>
      <point x="442" y="21" type="curve" smooth="yes"/>
      <point x="257" y="21"/>
      <point x="133" y="150"/>
      <point x="133" y="335" type="curve" smooth="yes"/>
      <point x="133" y="520"/>
      <point x="257" y="649"/>
    </contour>
    <component base="c" xScale="0.812" yScale="0.812" xOffset="209" yOffset="138"/>
  </outline>
</glyph>
<glyph name="guillemotleft" format="1">
  <advance width="655"/>
  <unicode hex="00AB"/>
  <outline>
    <contour>
      <point x="315" y="32" type="line"/>
      <point x="315" y="137" type="line"/>
      <point x="175" y="246" type="line"/>
      <point x="315" y="363" type="line"/>
      <point x="315" y="468" type="line"/>
      <point x="80" y="265" type="line"/>
      <point x="80" y="227" type="line"/>
    </contour>
    <contour>
      <point x="555" y="32" type="line"/>
      <point x="555" y="137" type="line"/>
      <point x="415" y="246" type="line"/>
      <point x="555" y="363" type="line"/>
      <point x="555" y="468" type="line"/>
      <point x="320" y="265" type="line"/>
      <point x="320" y="227" type="line"/>
    </contour>
  </outline>
</glyph>
<glyph name="uni00B3" format="1">
  <advance width="262"/>
  <unicode hex="00B3"/>
  <outline>
    <contour>
      <point x="119" y="679" type="curve" smooth="yes"/>
      <point x="91" y="679"/>
      <point x="65" y="668"/>
      <point x="49" y="653" type="curve"/>
      <point x="49" y="596" type="line"/>
      <point x="62" y="609"/>
      <point x="85" y="621"/>
      <point x="109" y="621" type="curve" smooth="yes"/>
      <point x="137" y="621"/>
      <point x="160" y="605"/>
      <point x="160" y="581" type="curve" smooth="yes"/>
      <point x="160" y="558"/>
      <point x="139" y="545"/>
      <point x="110" y="545" type="curve" smooth="yes"/>
      <point x="84" y="545" type="line"/>
      <point x="84" y="495" type="line"/>
      <point x="107" y="495" type="line" smooth="yes"/>
      <point x="134" y="495"/>
      <point x="159" y="480"/>
      <point x="159" y="452" type="curve" smooth="yes"/>
      <point x="159" y="424"/>
      <point x="141" y="414"/>
      <point x="112" y="414" type="curve" smooth="yes"/>
      <point x="81" y="414"/>
      <point x="56" y="437"/>
      <point x="40" y="449" type="curve"/>
      <point x="40" y="391" type="line"/>
      <point x="56" y="377"/>
      <point x="85" y="363"/>
      <point x="120" y="363" type="curve" smooth="yes"/>
      <point x="180" y="363"/>
      <point x="222" y="402"/>
      <point x="222" y="452" type="curve" smooth="yes"/>
      <point x="222" y="493"/>
      <point x="185" y="518"/>
      <point x="162" y="524" type="curve"/>
      <point x="185" y="530"/>
      <point x="218" y="552"/>
      <point x="218" y="593" type="curve" smooth="yes"/>
      <point x="218" y="643"/>
      <point x="178" y="679"/>
    </contour>
  </outline>
</glyph>
<glyph name="acute" format="1">
  <advance width="314"/>
  <unicode hex="00B4"/>
  <outline>
    <contour>
      <point x="294" y="720" type="line"/>
      <point x="180" y="720" type="line"/>
      <point x="70" y="585" type="line"/>
      <point x="152" y="585" type="line"/>
    </contour>
    <contour>
      <point x="122" y="500" type="move" name="_top"/>
    </contour>
  </outline>
</glyph>
<glyph name="uni00B5" format="1">
  <advance width="564"/>
  <unicode hex="00B5"/>
  <outline>
    <contour>
      <point x="494" y="500" type="line"/>
      <point x="409" y="500" type="line"/>
      <point x="409" y="204" type="line" smooth="yes"/>
      <point x="409" y="117"/>
      <point x="349" y="70"/>
      <point x="282" y="70" type="curve" smooth="yes"/>
      <point x="215" y="70"/>
      <point x="155" y="117"/>
      <point x="155" y="204" type="curve" smooth="yes"/>
      <point x="155" y="500" type="line"/>
      <point x="70" y="500" type="line"/>
      <point x="70" y="244" type="line"/>
      <point x="123" y="152" type="line"/>
      <point x="123" y="52"/>
      <point x="190" y="-10"/>
      <point x="277" y="-10" type="curve" smooth="yes"/>
      <point x="362" y="-10"/>
      <point x="429" y="52"/>
      <point x="429" y="152" type="curve"/>
      <point x="494" y="234" type="line"/>
    </contour>
    <contour>
      <point x="152" y="67" type="line"/>
      <point x="70" y="304" type="line"/>
      <point x="70" y="-240" type="line"/>
      <point x="152" y="-240" type="line"/>
    </contour>
    <contour>
      <point x="494" y="262" type="line"/>
      <point x="412" y="148" type="line"/>
      <point x="412" y="0" type="line"/>
      <point x="494" y="0" type="line"/>
    </contour>
  </outline>
</glyph>
<glyph name="uni00B9" format="1">
  <advance width="271"/>
  <unicode hex="00B9"/>
  <outline>
    <contour>
      <point x="169" y="670" type="line"/>
      <point x="129" y="670" type="line"/>
      <point x="113" y="648"/>
      <point x="87" y="626"/>
      <point x="43" y="617" type="curve"/>
      <point x="43" y="556" type="line"/>
      <point x="72" y="559"/>
      <point x="91" y="563"/>
      <point x="109" y="579" type="curve"/>
      <point x="109" y="373" type="line"/>
      <point x="169" y="373" type="line"/>
    </contour>
    <contour>
      <point x="231" y="428" type="line"/>
      <point x="40" y="428" type="line"/>
      <point x="40" y="373" type="line"/>
      <point x="231" y="373" type="line"/>
    </contour>
  </outline>
</glyph>
<glyph name="Thorn" format="1">
  <advance width="634"/>
  <unicode hex="00DE"/>
  <outline>
    <contour>
      <point x="207" y="670" type="line"/>
      <point x="110" y="670" type="line"/>
      <point x="110" y="0" type="line"/>
      <point x="207" y="0" type="line"/>
      <point x="207" y="172" type="line"/>
      <point x="253" y="157"/>
      <point x="300" y="148"/>
      <point x="359" y="148" type="curve" smooth="yes"/>
      <point x="501" y="148"/>
      <point x="584" y="242"/>
      <point x="584" y="352" type="curve" smooth="yes"/>
      <point x="584" y="472"/>
      <point x="473" y="550"/>
      <point x="358" y="550" type="curve" smooth="yes"/>
      <point x="207" y="550" type="line"/>
    </contour>
    <contour>
      <point x="333" y="460" type="line" smooth="yes"/>
      <point x="419" y="460"/>
      <point x="482" y="419"/>
      <point x="482" y="352" type="curve" smooth="yes"/>
      <point x="482" y="285"/>
      <point x="444" y="233"/>
      <point x="353" y="233" type="curve" smooth="yes"/>
      <point x="307" y="233"/>
      <point x="249" y="240"/>
      <point x="207" y="263" type="curve"/>
      <point x="207" y="460" type="line"/>
    </contour>
  </outline>
</glyph>
<glyph name="ae" format="1">
  <advance width="987"/>
  <unicode hex="00E6"/>
  <outline>
    <component base="e" xOffset="416"/>
    <component base="a"/>
    <contour>
      <point x="536" y="10" type="move" name="ogonek"/>
    </contour>
    <contour>
      <point x="307" y="500" type="move" name="top"/>
    </contour>
  </outline>
</glyph>
<glyph name="divide" format="1">
  <advance width="551"/>
  <unicode hex="00F7"/>
  <outline>
    <contour>
      <point x="471" y="358" type="line"/>
      <point x="80" y="358" type="line"/>
      <point x="80" y="268" type="line"/>
      <point x="471" y="268" type="line"/>
    </contour>
    <contour>
      <point x="276" y="193" type="curve" smooth="yes"/>
      <point x="241" y="193"/>
      <point x="213" y="165"/>
      <point x="213" y="130" type="curve" smooth="yes"/>
      <point x="213" y="96"/>
      <point x="241" y="67"/>
      <point x="276" y="67" type="curve" smooth="yes"/>
      <point x="310" y="67"/>
      <point x="339" y="96"/>
      <point x="339" y="130" type="curve" smooth="yes"/>
      <point x="339" y="165"/>
      <point x="310" y="193"/>
    </contour>
    <contour>
      <point x="276" y="557" type="curve" smooth="yes"/>
      <point x="241" y="557"/>
      <point x="213" y="529"/>
      <point x="213" y="494" type="curve" smooth="yes"/>
      <point x="213" y="460"/>
      <point x="241" y="431"/>
      <point x="276" y="431" type="curve" smooth="yes"/>
      <point x="310" y="431"/>
      <point x="339" y="460"/>
      <point x="339" y="494" type="curve" smooth="yes"/>
      <point x="339" y="529"/>
      <point x="310" y="557"/>
    </contour>
  </outline>
</glyph>
<glyph name="lcaron" format="1">
  <advance width="372"/>
  <unicode hex="013E"/>
  <outline>
    <contour>
      <point x="265" y="718" type="line"/>
      <point x="255" y="530" type="line"/>
      <point x="322" y="530" type="line"/>
      <point x="352" y="718" type="line"/>
    </contour>
    <component base="l"/>
  </outline>
</glyph>
<glyph name="lslash" format="1">
  <advance width="301"/>
  <unicode hex="0142"/>
  <outline>
    <contour>
      <point x="291" y="517" type="line"/>
      <point x="10" y="309" type="line"/>
      <point x="10" y="233" type="line"/>
      <point x="291" y="441" type="line"/>
    </contour>
    <component base="l" xOffset="15"/>
  </outline>
</glyph>
<glyph name="Eng" format="1">
  <advance width="761"/>
  <unicode hex="014A"/>
  <outline>
    <contour>
      <point x="613" y="35" type="line"/>
      <point x="646" y="135" type="line"/>
      <point x="146" y="670" type="line"/>
      <point x="110" y="670" type="line"/>
      <point x="110" y="0" type="line"/>
      <point x="207" y="0" type="line"/>
      <point x="207" y="469" type="line"/>
    </contour>
    <component base="J" xOffset="446"/>
    <contour>
      <point x="396" y="0" type="move" name="bottom"/>
    </contour>
    <contour>
      <point x="396" y="670" type="move" name="top"/>
    </contour>
  </outline>
</glyph>
<glyph name="eng" format="1">
  <advance width="585"/>
  <unicode hex="014B"/>
  <outline>
    <contour>
      <point x="515" y="88" type="line"/>
      <point x="433" y="88" type="line"/>
      <point x="433" y="-5" type="line" smooth="yes"/>
      <point x="433" y="-87"/>
      <point x="394" y="-139"/>
      <point x="306" y="-181" type="curve"/>
      <point x="343" y="-255" type="line"/>
      <point x="448" y="-212"/>
      <point x="515" y="-128"/>
      <point x="515" y="-13" type="curve" smooth="yes"/>
    </contour>
    <component base="n"/>
  </outline>
</glyph>
<glyph name="tcaron" format="1">
  <advance width="451"/>
  <unicode hex="0165"/>
  <outline>
    <contour>
      <point x="295" y="718" type="line"/>
      <point x="285" y="530" type="line"/>
      <point x="352" y="530" type="line"/>
      <point x="382" y="718" type="line"/>
    </contour>
    <component base="t"/>
  </outline>
</glyph>
<glyph name="tbar" format="1">
  <advance width="428"/>
  <unicode hex="0167"/>
  <outline>
    <contour>
      <point x="363" y="293" type="line"/>
      <point x="43" y="293" type="line"/>
      <point x="43" y="223" type="line"/>
      <point x="363" y="223" type="line"/>
    </contour>
    <component base="t"/>
  </outline>
</glyph>
<glyph name="circumflex" format="1">
  <advance width="484"/>
  <unicode hex="02C6"/>
  <outline>
    <contour>
      <point x="264" y="720" type="line"/>
      <point x="220" y="720" type="line"/>
      <point x="80" y="581" type="line"/>
      <point x="162" y="581" type="line"/>
      <point x="242" y="659" type="line"/>
      <point x="322" y="581" type="line"/>
      <point x="404" y="581" type="line"/>
    </contour>
    <contour>
      <point x="242" y="500" type="move" name="_top"/>
    </contour>
  </outline>
</glyph>
<glyph name="breve" format="1">
  <advance width="484"/>
  <unicode hex="02D8"/>
  <outline>
    <contour>
      <point x="404" y="720" type="curve"/>
      <point x="332" y="720" type="line"/>
      <point x="326" y="672"/>
      <point x="295" y="638"/>
      <point x="242" y="638" type="curve" smooth="yes"/>
      <point x="189" y="638"/>
      <point x="158" y="672"/>
      <point x="152" y="720" type="curve"/>
      <point x="80" y="720" type="line"/>
      <point x="83" y="628"/>
      <point x="152" y="570"/>
      <point x="242" y="570" type="curve" smooth="yes"/>
      <point x="332" y="570"/>
      <point x="401" y="628"/>
    </contour>
    <contour>
      <point x="242" y="500" type="move" name="_top"/>
    </contour>
  </outline>
</glyph>
<glyph name="endash" format="1">
  <advance width="610"/>
  <unicode hex="2013"/>
  <outline>
    <contour>
      <point x="550" y="298" type="line"/>
      <point x="60" y="298" type="line"/>
      <point x="60" y="208" type="line"/>
      <point x="550" y="208" type="line"/>
    </contour>
  </outline>
</glyph>
<glyph name="quoteleft" format="1">
  <advance width="232"/>
  <unicode hex="2018"/>
  <outline>
    <contour>
      <point x="150" y="688" type="line"/>
      <point x="40" y="431" type="line"/>
      <point x="122" y="403" type="line"/>
      <point x="212" y="672" type="line"/>
    </contour>
  </outline>
</glyph>
<glyph name="daggerdbl" format="1">
  <advance width="600"/>
  <unicode hex="2021"/>
  <outline>
    <contour>
      <point x="270" y="670" type="line"/>
      <point x="173" y="670" type="line"/>
      <point x="173" y="-100" type="line"/>
      <point x="270" y="-100" type="line"/>
    </contour>
    <contour>
      <point x="403" y="520" type="line"/>
      <point x="40" y="520" type="line"/>
      <point x="40" y="440" type="line"/>
      <point x="403" y="440" type="line"/>
    </contour>
    <contour>
      <point x="403" y="265" type="line"/>
      <point x="40" y="265" type="line"/>
      <point x="40" y="185" type="line"/>
      <point x="403" y="185" type="line"/>
    </contour>
  </outline>
</glyph>
<glyph name="guilsinglleft" format="1">
  <advance width="415"/>
  <unicode hex="2039"/>
  <outline>
    <contour>
      <point x="315" y="32" type="line"/>
      <point x="315" y="137" type="line"/>
      <point x="175" y="246" type="line"/>
      <point x="315" y="363" type="line"/>
      <point x="315" y="468" type="line"/>
      <point x="80" y="265" type="line"/>
      <point x="80" y="227" type="line"/>
    </contour>
  </outline>
</glyph>
<glyph name="uni2074" format="1">
  <advance width="292"/>
  <unicode hex="2074"/>
  <outline>
    <contour>
      <point x="216" y="670" type="line"/>
      <point x="181" y="670" type="line"/>
      <point x="135" y="580"/>
      <point x="71" y="507"/>
      <point x="20" y="453" type="curve"/>
      <point x="20" y="439" type="line"/>
      <point x="156" y="439" type="line"/>
      <point x="156" y="373" type="line"/>
      <point x="216" y="373" type="line"/>
      <point x="216" y="439" type="line"/>
      <point x="252" y="439" type="line"/>
      <point x="252" y="492" type="line"/>
      <point x="216" y="492" type="line"/>
    </contour>
    <contour>
      <point x="156" y="562" type="curve"/>
      <point x="156" y="492" type="line"/>
      <point x="102" y="492" type="line"/>
      <point x="132" y="526"/>
      <point x="138" y="535"/>
    </contour>
  </outline>
</glyph>
<glyph name="uni2215" format="1">
  <advance width="703"/>
  <unicode hex="2215"/>
  <outline>
    <contour>
      <point x="653" y="670" type="line"/>
      <point x="572" y="670" type="line"/>
      <point x="50" y="0" type="line"/>
      <point x="128" y="0" type="line"/>
    </contour>
  </outline>
</glyph>
